<?xml version="1.0" encoding="utf-8"?>
<!-- Generator: Adobe Illustrator 24.3.0, SVG Export Plug-In . SVG Version: 6.00 Build 0)  -->
<svg version="1.1" id="Layer_1" xmlns="http://www.w3.org/2000/svg" xmlns:xlink="http://www.w3.org/1999/xlink" x="0px" y="0px"
	 viewBox="0 0 800 270" style="enable-background:new 0 0 800 270;" xml:space="preserve">
<style type="text/css">
	.st0{fill:#EDEDED;}
	.st1{fill:#3E96ED;}
	.st2{fill:#E71D73;}
	.st3{fill:#FFA701;}
</style>
<g>
	<g>
		<path class="st0" d="M353.08,148.41c0,17.87-15.54,25.48-32.32,25.48c-15.54,0-27.34-5.9-33.4-18.49l20.2-11.5
			c2.02,5.9,6.37,9.17,13.2,9.17c5.59,0,8.39-1.71,8.39-4.82c0-8.55-38.22-4.04-38.22-30.92c0-16.94,14.3-25.48,30.45-25.48
			c12.59,0,23.77,5.59,30.3,16.63l-19.89,10.72c-2.17-4.04-5.28-6.84-10.41-6.84c-4.04,0-6.53,1.55-6.53,4.35
			C314.86,125.57,353.08,119.67,353.08,148.41z"/>
		<path class="st0" d="M392.71,116.41v27.5c0,6.68,5.75,7.3,16,6.68v21.13c-30.45,3.11-39.31-6.06-39.31-27.81v-27.5h-12.43V94.03
			h12.43V79.27l23.31-6.99v21.75h16v22.37H392.71z"/>
		<path class="st0" d="M471.33,171.72l-14.45-20.51l-14.45,20.51h-26.72l27.81-39.46l-26.88-38.22h26.72l13.52,19.27l13.52-19.27
			h26.72l-26.88,38.22l27.81,39.46H471.33z"/>
		<path class="st0" d="M505.83,159.14c0-8.08,6.68-14.76,14.76-14.76s14.76,6.68,14.76,14.76c0,8.08-6.68,14.76-14.76,14.76
			S505.83,167.22,505.83,159.14z"/>
		<path class="st0" d="M584.92,153.08c6.37,0,11.81-2.49,14.92-5.9l18.64,10.72c-7.61,10.57-19.11,16-33.87,16
			c-26.57,0-43.04-17.87-43.04-41.02s16.78-41.02,41.33-41.02c22.68,0,39.46,17.56,39.46,41.02c0,3.26-0.31,6.37-0.93,9.32h-55.16
			C569.23,150.28,576.38,153.08,584.92,153.08z M599.22,124.8c-2.49-9.01-9.48-12.27-16.47-12.27c-8.86,0-14.76,4.35-16.94,12.27
			H599.22z"/>
		<path class="st0" d="M631.7,132.88c0-23.15,17.56-41.02,41.17-41.02c15.07,0,28.43,7.92,35.11,19.89l-20.35,11.81
			c-2.64-5.44-8.23-8.7-15.07-8.7c-10.1,0-17.56,7.3-17.56,18.02c0,10.72,7.46,18.02,17.56,18.02c6.84,0,12.58-3.26,15.07-8.7
			l20.35,11.65c-6.68,12.12-19.89,20.04-35.11,20.04C649.25,173.89,631.7,156.03,631.7,132.88z"/>
		<path class="st0" d="M712.65,132.88c0-23.15,18.33-41.02,41.17-41.02c22.84,0,41.18,17.87,41.18,41.02s-18.34,41.02-41.18,41.02
			C730.99,173.89,712.65,156.03,712.65,132.88z M771.69,132.88c0-11.03-7.77-18.33-17.87-18.33c-10.1,0-17.87,7.3-17.87,18.33
			s7.77,18.33,17.87,18.33C763.93,151.21,771.69,143.91,771.69,132.88z"/>
	</g>
	<g>
		<path class="st2" d="M217.26,92.72c9.93,0,18,8.07,18,18s-8.07,18-18,18s-18-8.08-18-18S207.33,92.72,217.26,92.72z"/>
		<path class="st1" d="M168.7,92.72c9.93,0,18,8.07,18,18s-8.07,18-18,18c-9.93,0-18-8.08-18-18S158.77,92.72,168.7,92.72z"/>
		<path class="st3" d="M120.13,92.72c9.93,0,18,8.07,18,18s-8.07,18-18,18s-18-8.08-18-18S110.2,92.72,120.13,92.72z"/>
		<path class="st1" d="M71.57,92.72c9.92,0,18,8.07,18,18s-8.07,18-18,18c-9.93,0-18-8.08-18-18S61.64,92.72,71.57,92.72z"/>
		<path class="st1" d="M144.41,50.64c9.93,0,18,8.08,18,18s-8.07,18-18,18c-9.92,0-18-8.08-18-18S134.49,50.64,144.41,50.64z"/>
		<circle class="st1" cx="95.85" cy="68.64" r="18"/>
		<circle class="st2" cx="168.7" cy="26.62" r="18"/>
		<path class="st2" d="M71.57,8.62c9.92,0,18,8.08,18,18s-8.07,18-18,18c-9.93,0-18-8.08-18-18S61.64,8.62,71.57,8.62z"/>
		<path class="st2" d="M23,92.72c9.93,0,18,8.07,18,18s-8.07,18-18,18s-18-8.08-18-18S13.07,92.72,23,92.72z"/>
		<path class="st2" d="M217.26,141.28c9.93,0,18,8.08,18,18s-8.07,18-18,18s-18-8.07-18-18S207.33,141.28,217.26,141.28z"/>
		<path class="st1" d="M168.7,141.28c9.93,0,18,8.08,18,18s-8.07,18-18,18c-9.93,0-18-8.07-18-18S158.77,141.28,168.7,141.28z"/>
		<path class="st3" d="M120.13,141.28c9.93,0,18,8.08,18,18s-8.07,18-18,18s-18-8.07-18-18S110.2,141.28,120.13,141.28z"/>
		<path class="st1" d="M71.57,141.28c9.92,0,18,8.08,18,18s-8.07,18-18,18c-9.93,0-18-8.07-18-18S61.64,141.28,71.57,141.28z"/>
		<path class="st1" d="M144.41,183.35c9.93,0,18,8.08,18,18s-8.07,18-18,18c-9.92,0-18-8.08-18-18S134.49,183.35,144.41,183.35z"/>
		<circle class="st1" cx="95.85" cy="201.36" r="18"/>
		<circle class="st2" cx="168.7" cy="243.38" r="18"/>
		<path class="st2" d="M71.57,225.38c9.92,0,18,8.08,18,18c0,9.93-8.07,18-18,18c-9.93,0-18-8.08-18-18
			C53.57,233.46,61.64,225.38,71.57,225.38z"/>
		<path class="st2" d="M23,141.28c9.93,0,18,8.08,18,18s-8.07,18-18,18s-18-8.07-18-18S13.07,141.28,23,141.28z"/>
	</g>
</g>
</svg>
